<svg xmlns="http://www.w3.org/2000/svg" id="Camada_2" data-name="Camada 2" viewBox="0 0 156.26 45.15"><g id="Camada_1-2" data-name="Camada 1" fill="#FFFFFF"><path d="m0,28.62h41.41V.15H0v28.47Zm12.64-7.87c-2.04,0-4.24-.61-5.83-1.74l.61-.98c1.44,1.06,3.41,1.59,5.22,1.59,1.59,0,4.47-.53,4.47-2.73,0-1.89-2.27-2.27-4.54-2.8-2.73-.53-5.38-1.06-5.38-3.86s3.03-3.86,5.45-3.86c1.82,0,3.63.45,4.85,1.67l-.76.83c-.98-.98-2.5-1.36-4.09-1.36-1.89,0-4.24.68-4.24,2.73,0,1.89,2.2,2.27,4.47,2.65,2.73.53,5.53,1.14,5.53,3.94-.08,3.18-3.71,3.94-5.75,3.94m15.14,0c-2.12,0-3.86-.83-4.92-2.2v6.51h-1.14v-14.91c1.36-3.18,3.94-3.71,6.06-3.71,3.63,0,6.74,3.26,6.74,7.12.08,4.01-2.95,7.19-6.74,7.19m0-13.17c-2.5,0-3.79.98-4.92,2.95v6.21c.83,1.74,2.73,2.88,4.92,2.88,3.03,0,5.6-2.73,5.6-6.06,0-3.26-2.57-5.98-5.6-5.98M76.16.53h-1.74v13.55h-22.79V.53h-1.82v27.18h1.82v-11.96h22.79v11.96h1.74V.53Zm18.62-.38h-1.06l-13.1,27.1,1.51.76,12.04-25.06h.15l12.04,25.06,1.51-.76L94.79.15Zm39.22.38h-1.67v14.23c0,6.59-4.92,11.89-11.05,11.89s-11.05-5.3-11.05-11.89V.53h-1.67v14.23c0,7.5,5.68,13.55,12.72,13.55s12.72-6.06,12.72-13.55V.53Zm1.89,27.86c3.94-.61,6.81-6.36,9.08-11.05l2.42-4.92c1.97-4.24,4.77-9.69,8.86-10.67l-.38-1.74c-4.92.91-8.18,7.8-10.07,11.66l-2.42,4.92c-2.12,4.32-4.85,9.61-7.95,10.14l.45,1.67Zm-97.24,15.28c0,.45-.14.8-.42,1.05-.28.25-.66.38-1.16.38h-1.96v-5.21h1.91c.49,0,.87.12,1.14.35.26.24.4.58.4,1.02,0,.26-.07.51-.21.72-.14.21-.34.35-.59.44.29.09.51.24.66.46.14.22.22.48.22.79Zm-1.68-1.48c.32,0,.58-.08.77-.23.19-.14.28-.37.28-.67s-.09-.53-.27-.69c-.18-.15-.44-.23-.77-.23h-1.31v1.81h1.3Zm1.13,1.44c0-.31-.09-.55-.28-.71s-.46-.24-.81-.24h-1.34v1.93h1.34c.35,0,.62-.08.81-.25.19-.17.29-.41.29-.72Zm5.6,1.46v-2.19l-1.56-3.02h.6l1.23,2.5,1.24-2.5h.6l-1.56,3.03v2.18h-.55Zm10.34-1.93v-1.35c0-.69.17-1.19.5-1.52.33-.32.78-.48,1.34-.48.35,0,.66.07.94.2.26.13.48.32.62.56.14.24.22.52.22.84v.02h-.55v-.02c0-.34-.11-.6-.32-.8s-.52-.29-.9-.29c-.42,0-.73.12-.95.35-.22.23-.33.63-.33,1.16v1.36c0,.97.43,1.46,1.29,1.46.38,0,.67-.1.89-.29.22-.19.32-.45.32-.79v-.03h.54v.03c0,.49-.16.88-.48,1.16-.32.29-.75.43-1.28.43s-1-.16-1.34-.48c-.33-.32-.5-.82-.5-1.51Zm7.76,1.93h-.58l1.9-5.21h.46l1.9,5.21h-.58l-.44-1.25h-2.21l-.44,1.25Zm.6-1.72h1.9l-.95-2.72-.94,2.72Zm6.4.25h.54c.07.69.48,1.03,1.24,1.03.39,0,.69-.08.9-.25.2-.17.3-.41.3-.72,0-.29-.08-.51-.24-.65-.16-.14-.41-.25-.73-.3l-.59-.1c-.42-.07-.75-.22-.97-.44-.23-.22-.34-.52-.34-.92,0-.46.15-.82.46-1.07s.71-.39,1.22-.39c.46,0,.85.12,1.14.35.29.24.47.6.52,1.09h-.54c-.06-.65-.44-.97-1.13-.97-.35,0-.63.08-.83.25-.2.17-.3.4-.3.69,0,.26.08.45.23.6.15.14.39.25.69.3l.6.11c.44.08.77.23,1,.45s.35.54.35.96c0,.48-.16.84-.48,1.09-.32.26-.75.39-1.31.39-.52,0-.94-.13-1.23-.39s-.47-.63-.51-1.13Zm7.53,1.47h-.58l1.9-5.21h.46l1.89,5.21h-.58l-.44-1.25h-2.21l-.44,1.25Zm.6-1.72h1.9l-.95-2.72-.94,2.72Zm14.95.29c0,.45-.14.8-.42,1.05-.28.25-.66.38-1.16.38h-1.96v-5.21h1.91c.49,0,.87.12,1.14.35.26.24.4.58.4,1.02,0,.26-.07.51-.21.72-.14.21-.34.35-.59.44.29.09.51.24.66.46.14.22.22.48.22.79Zm-1.68-1.48c.32,0,.58-.08.77-.23.19-.14.28-.37.28-.67s-.09-.53-.27-.69c-.18-.15-.44-.23-.77-.23h-1.31v1.81h1.3Zm1.13,1.44c0-.31-.09-.55-.28-.71s-.46-.24-.81-.24h-1.34v1.93h1.34c.35,0,.62-.08.81-.25.19-.17.29-.41.29-.72Zm4.57-.47v-1.35c0-.69.17-1.19.49-1.52.32-.32.77-.48,1.32-.48s.99.16,1.31.48c.32.32.48.83.48,1.52v1.35c0,.69-.17,1.19-.49,1.51-.32.32-.76.48-1.31.48s-.99-.16-1.31-.48c-.32-.32-.49-.82-.49-1.51Zm1.81-2.85c-.42,0-.73.12-.94.35-.21.24-.32.63-.32,1.16v1.36c0,.51.11.88.32,1.11.21.23.52.35.94.35.83,0,1.25-.48,1.25-1.46v-1.36c0-1.01-.42-1.52-1.25-1.52Zm5.57,3.31h.54c.07.69.48,1.03,1.24,1.03.39,0,.69-.08.9-.25.2-.17.3-.41.3-.72,0-.29-.08-.51-.24-.65-.16-.14-.41-.25-.73-.3l-.59-.1c-.42-.07-.75-.22-.97-.44-.23-.22-.34-.52-.34-.92,0-.46.15-.82.46-1.07s.71-.39,1.22-.39c.46,0,.85.12,1.14.35.29.24.47.6.52,1.09h-.54c-.06-.65-.44-.97-1.13-.97-.35,0-.63.08-.83.25-.2.17-.3.4-.3.69,0,.26.08.45.23.6.15.14.39.25.69.3l.6.11c.44.08.77.23,1,.45s.35.54.35.96c0,.48-.16.84-.48,1.09-.32.26-.76.39-1.31.39-.52,0-.94-.13-1.23-.39s-.47-.63-.51-1.13Zm7.14,0h.54c.07.69.48,1.03,1.24,1.03.39,0,.69-.08.9-.25.2-.17.3-.41.3-.72,0-.29-.08-.51-.24-.65-.16-.14-.41-.25-.73-.3l-.59-.1c-.42-.07-.75-.22-.97-.44-.23-.22-.34-.52-.34-.92,0-.46.15-.82.46-1.07s.71-.39,1.22-.39c.46,0,.85.12,1.14.35.29.24.47.6.52,1.09h-.54c-.06-.65-.44-.97-1.13-.97-.35,0-.63.08-.83.25-.2.17-.3.4-.3.69,0,.26.08.45.23.6.15.14.39.25.69.3l.6.11c.44.08.77.23,1,.45s.35.54.35.96c0,.48-.16.84-.48,1.09-.32.26-.76.39-1.31.39-.52,0-.94-.13-1.23-.39s-.47-.63-.51-1.13Zm7.53,1.47h-.58l1.9-5.21h.46l1.9,5.21h-.58l-.44-1.25h-2.21l-.44,1.25Zm.6-1.72h1.9l-.95-2.72-.94,2.72Z" style="stroke-width: 0px;"></path></g></svg>